<svg xmlns="http://www.w3.org/2000/svg" width="2517" height="801" version="1.0"><g fill="none"><path d="M0 400.5V0h2517v801H0V400.5zM1310 769c299.7-6.6 616.3-47 878-112 42.3-10.5 108.5-28.8 107.6-29.7-.2-.3-9.1 1.8-19.8 4.6-140.8 36.4-326 68-500.8 85.5-61.9 6.2-105.1 9.6-175 13.6-90.7 5.2-255.7 5.6-373.5 1-43.1-1.7-117.8-5.8-147-8-42.9-3.3-54.7-4.3-80-6.6C728 693 508 642.7 412.1 583.1l-7.6-4.7-158.5.7c-87.2.4-171.8.8-188 .8-33.9.1-32.6-1-11.8 10.4 132.3 72.1 382 128.8 696.8 158.2 118.1 11 283.9 19.8 393.5 20.8 73.4.7 133.8.6 173.5-.3zm991.5-143c1.3-.5 1.4-.9.5-.9-.8 0-2.4.4-3.5.9-1.3.5-1.4.9-.5.9.8 0 2.4-.4 3.5-.9zM532 528.9c.8-.1-3.7-.5-10-.9-9.4-.5-12.5-1.1-17-3.1-14.6-6.8-20.9-18.2-23.1-42-1.5-16.4-.7-99.3 1-103.6 1.5-3.9 6.3-6.3 12.5-6.3 2.5 0 4.6-.4 4.6-1s-9.7-1-27-1-27 .4-27 1 1.7 1 3.8 1c6.6 0 11 1.8 12.9 5.3 1.6 2.9 1.9 8.4 2.4 57.2.4 33.6 1.1 55.9 1.8 58.9 3.4 14.9 13.9 27 28.1 32.2 9.4 3.4 24.1 4.3 37 2.3zm-308.5.2c3.3-.7 2.2-.9-5.6-1-14.7-.2-21.7-2.6-29.3-10.4-12.6-12.8-13.8-20.7-13.4-87.1.3-44.2.5-49.4 2-52.2 2-3.6 6.1-5.4 12.4-5.4 2.4 0 4.4-.4 4.4-1s-9.7-1-27-1-27 .4-27 1 1.8 1 4 1c6.2 0 11.6 2.6 13.1 6.3 1 2.4 1.5 17.3 1.9 58.2.6 53.2.7 55.2 2.8 61.7 4.9 14.6 16.3 24.7 33.2 29.2 6 1.6 22.1 2 28.5.7zm975.8-.7c27.7-6.3 48.3-28.9 55.4-60.8.9-4.4 1.6-11.7 1.5-19.1 0-14.7-3-27.4-9.6-41-8.3-17.2-18.1-27.4-33.1-34.5-11.1-5.2-17.1-6.5-30-6.4-8.9.1-12.5.7-19 2.8-15.8 5.1-28.7 15.2-38.3 29.9-5.4 8.3-8.2 14.7-11.4 26.7-3 11-3 32.2 0 44.3 7.2 29.1 27.2 51.1 52.4 57.7 9.2 2.4 22.5 2.5 32.1.4zm-342.5-13.6c1.5-16.5 1.5-16.8-.1-16.8-.8 0-2 2.9-3 7.3-1.8 7.6-3.6 10.8-8.1 14.1-2.4 1.8-4.5 2.1-15.7 2.5-22.6.6-35.8-2.4-39.9-9.1-1.9-3.1-2-4.9-2-35.7v-32.3l21.8.4c12.8.3 22.8 1 24.5 1.6 3.3 1.4 5.7 6.4 5.7 12.2 0 3.3.3 4 2 4 1.9 0 2-.7 2-18.5 0-17.4-.1-18.5-1.9-18.5-1.5 0-1.9.9-2.3 5.5-.9 10.2-4.5 11.5-32.8 11.5h-19V373.7l22.8.6c33.9.9 35.9 1.7 38.9 14.5 1.1 4.4 2.2 7.2 3 7.2 1.6 0 1.6.3.2-13.7l-1.2-11.3h-49.3c-31.8 0-49.5.4-49.9 1-.4.6 1.4 1 4.8 1 6.3 0 11.7 3 12.8 7 .4 1.4.7 32 .8 68 .1 60.5 0 65.8-1.7 69-2 4.1-4.9 5.7-11.4 6.5-2.7.4-4.8 1-4.8 1.6 0 .5 10.1 1 24.8 1 13.6.1 33.3.5 43.7.8 10.5.4 22.4.8 26.6.9l7.6.2 1.1-13.2zm724.3 11c0-1.3.6-8 1.3-15 1.1-11.8 1-12.8-.5-12.8-1.2 0-1.9 1.2-2.4 4.8-.3 2.6-1.7 7.1-3 10-3.6 7.8-7.2 9.2-24 9.2-23.2 0-34.2-2.9-37.7-10-1.6-3.1-1.8-7-1.8-35.4v-31.9l21.8.5c11.9.3 22.9 1.1 24.4 1.6 3.5 1.4 5.8 6 5.8 11.7 0 3.8.3 4.5 2 4.5 1.9 0 2-.7 2-18.5 0-17.4-.1-18.5-1.9-18.5-1.5 0-1.9 1-2.3 5.6-.9 10.3-3.8 11.3-32 11.4H1513v-68.9l20.8.5c29.2.7 32.6 1 36.2 4.1 2.9 2.4 6 10.1 6 15 0 1.5.6 2.3 1.6 2.3 1.5 0 1.6-1 1-8.1-.4-4.4-.9-10-1.3-12.5l-.6-4.4h-49.3c-32.3 0-49.4.3-49.4 1 0 .6 1.7 1 3.8 1 2 0 5.4.5 7.5 1.1 7 1.9 6.8-.1 6.8 73.6 0 46.2-.3 66.5-1.1 68.9-1.4 4.1-4.5 5.9-11.7 6.9-11.6 1.5-4.3 2.5 20 2.6 13.8.1 33.8.5 44.2.8 35.6 1.3 33.5 1.4 33.6-1.1zm337.8-10.5c1.4-16.1 1.4-17.3-.3-17.3-.8 0-1.7 2.1-2.5 5.7-1.8 9.1-4.6 13.9-9.5 16.2-3.6 1.8-6.1 2.1-17.2 2.1-22.5-.1-33.4-2.7-37.4-9.2-1.9-3.1-2-4.9-2-35.7v-32.4l21.8.5c12.5.3 22.9 1 24.5 1.7 3.3 1.3 5.7 6.3 5.7 12.1 0 3.3.3 4 2 4 1.9 0 2-.7 2-18.5 0-17.4-.1-18.5-1.9-18.5-1.5 0-1.9.9-2.3 5.5-.9 10.2-4.5 11.5-32.8 11.5h-19V373.7l22.9.6c12.6.4 25.2 1.2 28 1.8 6.7 1.4 9.5 4.7 11.2 13.3.9 4.5 1.7 6.6 2.7 6.6 1.5 0 1.5-1-.4-19.2l-.7-5.8h-49.3c-27.8 0-49.4.4-49.4.9s2.7 1.1 6 1.3c7 .5 10.4 3 11.5 8.5.3 1.9.6 32.3.6 67.4.1 59.9-.1 64.2-1.8 67.6-2.1 4.3-4.9 6-11.5 6.8-2.7.4-4.8 1-4.8 1.6 0 .5 10.3 1 25.3 1 13.8.1 33.5.5 43.7.8 10.2.4 21.9.8 26.1.9l7.6.2 1.2-12.7zm281.1 11.5c0-.7.7-7.6 1.5-15.3 1.8-17.3 1.8-17.5.2-17.5-.9 0-1.9 2.2-2.6 5.8-1.8 8.2-5.5 15.7-8.7 17.9-2.4 1.5-5.3 1.9-19.1 2.1-25.4.6-34.9-1.6-38.5-8.8-1.7-3.2-1.8-8.3-1.7-65 0-44.5.4-62.6 1.2-65.5 1.5-4.9 6-7.5 13-7.5 2.6 0 4.7-.4 4.7-1s-9.7-1-27-1-27 .4-27 1 1.7 1 3.8 1c6.6 0 11 1.8 12.9 5.3 1.7 2.9 1.8 8.4 2.1 66 .3 64.8-.1 72.4-3.6 76-1.1 1.1-4.7 2.3-8.5 3-3.7.6-6.7 1.5-6.7 1.9 0 .4 17.7.9 39.3.9 32.4.1 56.7.8 63.5 1.7.6.1 1.2-.4 1.2-1zM79 525.1c0-1.4-2.7-2.1-7.9-2.1-6.8 0-10.9-1.7-12.9-5.4-1.5-2.7-1.7-7.1-2-35.9l-.3-32.8 23.6.3 23.7.3 2.3 2.7c1.5 1.8 2.6 4.7 3 8.3.5 3.7 1.2 5.5 2.1 5.5 1.1 0 1.4-3.4 1.4-18.5s-.3-18.5-1.4-18.5c-.9 0-1.6 1.8-2.1 5.5-.8 6.7-2.8 9.3-8 10.5-2.2.5-13.1 1-24.3 1H56l.2-35.7.3-35.8 9.5-.1c20.6-.1 42.6 1.3 45.7 2.9 3.5 1.9 6.2 7 7.2 13.5.4 3.5 1.1 4.8 2.5 5 1.6.3 1.8-.1 1.3-3-.3-1.8-.9-6.4-1.2-10.3-.3-3.8-.8-8-1.1-9.2l-.4-2.3H70.5c-32.3 0-49.5.3-49.5 1 0 .6 2.1 1 4.8 1 7.2 0 11.4 2.6 12.9 8 2 6.7 1.4 133.3-.6 137.2-1.6 3.1-4.5 4.4-11.9 5.3-2.8.4-4.9 1.1-4.6 1.6.7 1.2 57.4 1.2 57.4 0zm318 0c0-.5-2.6-1.2-5.7-1.6-9-1-12.1-2.3-14.1-5.8-1.6-3-1.7-8.7-1.7-73.2v-70l9.5-.1c15.3-.3 27.7 1.2 32.9 3.8 5.4 2.7 9.5 9.6 10.6 17.8.5 4 1.1 5 2.5 5 1.7 0 1.8-.6 1.4-4.7-.3-2.7-1.1-10-1.7-16.3l-1.2-11.5-3 .3c-33.9 2.8-78.9 2.8-119.5 0l-3.5-.3-1.2 11c-.6 6.1-1.4 13.4-1.7 16.3-.6 4.6-.4 5.3 1 5 1.1-.2 2.2-2.5 3.3-6.8 2.3-9.2 4.8-13.1 10.2-15.8 5.4-2.7 17.1-4.2 32.7-4.2h10.3l-.3 70.3c-.3 64.4-.4 70.5-2 73.4-2 3.5-5.1 4.8-14 5.8-3.2.4-5.8 1.1-5.8 1.6s12.4.9 30.5.9 30.5-.4 30.5-.9zm265-.6c0-1.1-1.2-1.5-4.5-1.5-6 0-10-2.2-11.4-6.1-.7-2.1-1.1-14.3-1.1-35V450H668.7l22.4 38 22.3 38h12.8c7 0 12.8-.4 12.8-.9 0-1-2.4-2.1-4.9-2.1-4 0-9.7-7.5-25.6-33.5-13.6-22.3-18.9-29.9-24.1-34.8-3.5-3.3-4.4-4.8-4.4-7.4V444l-4 2c-3.4 1.7-5.8 2-17.3 2-13.2 0-13.5 0-13.8-2.2-.2-1.3-.3-18.2-.1-37.5l.4-35.3h10.6c14.3 0 21.4 1.3 29.2 5.2 5.7 2.9 6.8 4 9.3 8.9 2.3 4.5 3 7.5 3.4 14.1 1.1 16.6-3.5 31-12.4 38.7-2.5 2.3-4.2 4.1-3.7 4.1 2.6 0 16.6-9.5 21.2-14.4 9.2-9.8 13.7-23.4 11.2-34.5-2.8-13.1-10.9-19.6-27.9-22.7-9.3-1.6-75.6-2-76.6-.4-.4.6 1.2 1 4.2 1 6.6 0 11.5 2.6 13 7 .9 2.6 1.2 20.8 1.2 68.2.1 56.3-.1 65.3-1.5 68.6-1.8 4.7-4.7 6.2-11.4 6.2-3.8 0-5 .4-5 1.5 0 1.3 3.6 1.5 26 1.5s26-.2 26-1.5zm338 .6c0-.5-2.4-1.2-5.2-1.6-13.2-1.8-13-1.1-13-43.4l-.1-33.6 37.7-.3 37.7-.2-.3 34.2c-.4 42.3-.1 41.6-13.8 43.4-2.7.4-5 1-5 1.5 0 1.2 52.7 1.2 53.4 0 .3-.4-2.4-1.3-6-1.9-3.7-.6-7.5-1.8-8.5-2.8-3.7-3.3-4-9.9-3.7-75.5.3-57.7.5-63.7 2-66.5 2-3.6 6.1-5.4 12.4-5.4 2.4 0 4.4-.4 4.4-1s-9.7-1-27-1-27 .4-27 1 2 1 4.5 1 6 .6 7.9 1.4c5.8 2.4 6.1 4.5 6.1 38v29.9H1019l-37.5.1.4-30.5c.2-20 .7-31.3 1.5-32.9 1.5-3.3 7.1-6 12.4-6 2.3 0 4.2-.4 4.2-1s-9.7-1-27-1-27 .4-27 1 2 1 4.5 1c5.7 0 10.9 2.1 12.7 5.2 1 1.8 1.4 15.3 1.6 66.3.2 35.2 0 66-.3 68.4-1 6.6-4.5 9.6-12.3 10.5-3.5.4-6 1.1-5.7 1.7.8 1.2 53.5 1.2 53.5 0zm320 0c0-.6-2.1-1.3-4.7-1.6-6.6-.9-8.9-1.9-11-5.2-1.7-2.5-1.8-6.8-2.1-61.5l-.3-58.8h3.3c3.2 0 3.4.3 10.5 14.3 7.3 14.4 30.3 59.1 41.7 81.2l6.2 12 7.9-16.9c8.9-18.7 10.4-22.6 5-12.3-3.2 6.2-3.8 6.7-6.8 6.7-3.7 0-.2 6-31.9-56-9.4-18.4-19.7-38.4-22.9-44.5l-5.7-11-16.1-.3c-10.5-.2-16.1.1-16.1.8 0 .5 1.8 1 4 1 6.2 0 11.6 2.6 13.1 6.3 1.7 4.1 2.6 122.5 1 132.5-1.4 9.2-2.4 10-13.8 11.7-2.4.4-4.3 1.1-4.3 1.6s9.2.9 21.5.9c12.7 0 21.5-.4 21.5-.9zm139 0c0-.5-1.9-1.2-4.2-1.6-11.5-1.7-12.5-2.5-13.9-11.7-.6-3.9-.9-30.6-.7-68.3.3-56.4.5-62.3 2-65.1 2-3.6 6.1-5.4 12.4-5.4 2.4 0 4.4-.4 4.4-1s-6.2-1-16.7-1l-16.8.1-10.5 22.5c-12.4 26.7-14 31.1-3.5 9.7 7.4-15.2 7.4-15.3 10.8-15.3h3.3l-.3 62.8c-.2 40.8-.7 63.8-1.4 66-1.2 3.6-5.2 6.2-9.6 6.2-3.8 0-7.3 1-7.3 2.1 0 .5 11.6.9 26 .9 15 0 26-.4 26-.9zm266 0c0-.6-2.1-1.3-4.7-1.6-7.9-1-11-2.9-12.2-7.2-.7-2.3-1.1-16.2-1.1-35V450h23.8l17.8 30.3c9.7 16.6 19.8 33.7 22.3 38l4.6 7.7h12.7c12.3 0 16.4-1.1 9.6-2.5-6.1-1.3-12.1-8.7-26.3-32.5-11.6-19.5-19.7-31.3-24.7-36.1-3.7-3.5-4.8-5.3-4.8-7.7v-3l-4 1.9c-3.2 1.6-6.2 1.9-17.5 1.9H1707V372.7l14.3.6c17.1.6 23.9 2.4 30.1 7.8 5.8 5.1 7.8 10.3 8.3 21.9.8 16.3-3.5 29.2-12.6 37.1-2.4 2.1-4 3.9-3.6 3.9 2.4 0 13.8-7.3 19-12.2 19.5-18.2 18.7-47-1.5-55.7-10.2-4.4-17.8-5.1-54.6-5.1-22.3 0-34.4.4-34.4 1s1.8 1 4 1 5.6.7 7.6 1.5c6.6 2.7 6.4 1 6.4 74.1 0 57.5-.2 66-1.6 68.9-1.7 3.6-4.4 5-11.6 6-2.7.3-4.8 1-4.8 1.6 0 .5 10.7.9 26.5.9s26.5-.4 26.5-.9zm241-.6c0-1-1-1.5-3.4-1.5-4.7 0-7.6-2.7-8.3-7.6-.4-3.1.4-6.3 3.5-14.4 9.5-25 9.3-24.8 12.5-25.4 1.6-.3 17.4-.6 35.1-.6 24.2 0 32.6.3 33.9 1.3 1.6 1.2 11.4 23.5 13.7 31.2.6 2.2 1 6.5.8 9.5l-.3 5.5-5.8 1c-3.2.6-5.5 1.3-5.1 1.8 1.1 1.1 41.4.9 41.4-.3 0-.5-1.2-1.3-2.7-1.6-3.9-.9-6.1-3.1-9.1-8.9-2.1-4.2-23.5-54.8-55-130.3-4.1-10-8-18.1-8.6-17.9-1 .3-14.4 32.9-41.5 100.7-20.1 50.2-23.2 56-29.7 56-2.9 0-5.4 1-5.4 2.1 0 .5 7.7.9 17 .9 14.4 0 17-.2 17-1.5zm344 .6c0-1.3-2.7-2.1-7.4-2.1-6.3 0-10.4-1.8-12.4-5.4-1.6-2.8-1.7-9.1-2-73.4l-.3-70.4 17.1.7c27.8 1 32.6 3.7 36.4 20.3.9 4.1 1.8 5.8 3.1 6 1.5.3 1.7-.1 1.2-3-.3-1.8-1.2-9.3-1.8-16.6-1-9.8-1.6-13.1-2.5-12.8-.7.3-12.7 1-26.6 1.7-24.7 1.1-70.9.7-89.6-.9-9.7-.9-8.6-2.4-10.2 14.3-.6 6.1-1.3 12.5-1.6 14.3-.4 2.7-.2 3.2 1.4 3.2 1.6 0 2.1-1 2.6-4.9.3-2.6 1.9-7.2 3.4-10.2 2.1-4.3 3.6-5.9 7.2-7.6 5.4-2.7 17.2-4.1 32-3.9l10.5.1.3 67c.3 71.9.1 76.2-4.3 79.1-1.4.9-5.8 2.1-9.9 2.6-4.2.6-7.3 1.5-7 1.9.7 1.2 60.4 1.2 60.4 0zm139 .1c0-.5-3.4-1.4-7.5-2-8.2-1.1-9.7-1.9-12.3-6.6-1.5-2.7-1.7-7-1.7-34.6v-31.5l5.9-11c3.2-6 7.3-13.7 9.1-17 1.8-3.3 7-13 11.5-21.5 13.3-24.7 16.2-28 24.8-28 2.3 0 4.2-.4 4.2-1s-6.3-1-17-1c-16 0-22 1.1-13 2.3 5.8.7 7 2.1 7 7.8 0 5.3-2.7 11.1-22.1 47.1-8.4 15.8-8.4 15.8-11.9 15.8h-3.5l-11.5-20.3c-18.5-32.6-20-35.9-20-42.5 0-6.7 1.1-8.2 5.7-8.2 1.8 0 3.3-.4 3.3-1s-8.3-1-23-1-23 .4-23 1 1.1 1 2.5 1c7.1 0 15 8.5 25.9 27.6 4.4 7.7 12.6 21.9 18.3 31.7l10.3 17.8v30.3c0 16.7-.3 31.7-.6 33.5-.8 3.7-4.4 7.8-7.6 8.5-1.2.3-4.9.8-8.1 1.1-3.1.4-5.5 1.1-5.2 1.6.8 1.1 59.5 1.2 59.5.1zm-2197.3-9.8c8.4-8.4 11.7-16.2 13.3-31.4.5-5.2 1-29.7 1.1-54.5 0-31.7.4-46.2 1.2-49 1.5-4.9 6-7.5 13-7.5 2.6 0 4.7-.4 4.7-1s-8.3-1-23-1-23 .4-23 1 1.8 1 4 1c6.4 0 10.8 2.3 12.7 6.7 1.4 3.3 1.5 10.3 1.4 56.8-.2 57-.6 61.7-5.6 73.1-1.3 2.9-4.5 7.4-7.1 9.9l-4.7 4.6 3.9-2.3c2.1-1.2 5.8-4.1 8.1-6.4zm306.4-.4c6.2-6.2 9.1-11 11.6-19.7 1.4-4.9 1.7-13.8 2.2-59.8.5-42.6.9-54.6 2-56.7 1.8-3.5 6.7-5.8 12.5-5.8 2.5 0 4.6-.4 4.6-1s-8.3-1-23-1-23 .4-23 1 2.1 1 4.6 1c6.6 0 11 2.4 12.6 6.8 1 2.9 1.3 15.8 1.3 56.7 0 47.6-.2 53.8-1.8 60.7-2.4 10.2-6.9 18.9-12 23.4-4.2 3.7-4.2 3.7-.7 1.8 1.9-1 6-4.4 9.1-7.4zm830.6-63.6c-.5-.5-7.7 14.3-7.7 15.5.1.3 1.9-2.9 4.1-7.3 2.2-4.3 3.8-8 3.6-8.2zm6.2-12.9c0-.5-1.3 1.5-2.9 4.5-1.6 3-2.9 6-2.9 6.5 0 .6 1.3-1.5 2.9-4.5 1.6-3 2.9-5.9 2.9-6.5zm4.5-9.1c2-4.2 3.6-7.9 3.6-8.3-.1-.7-7.9 14.1-8 15.2-.1 1.9 1.1.1 4.4-6.9zm1062.5-117.9c-.3-.2-20.7-8.1-45.4-17.6-24.8-9.4-57.1-21.7-72-27.4-25.9-9.9-54.7-20.9-131.5-50.2-19.5-7.4-42.9-16.4-52-19.8-9.1-3.5-53.8-20.6-99.5-38-122.6-46.8-156.1-59.5-186-71-14.8-5.7-56.1-21.4-91.6-34.9L1719.4 28l-15.5 5.9c-8.5 3.2-34.3 13.1-57.4 21.9-23.1 8.8-79.3 30.3-125 47.7-45.6 17.5-87.5 33.4-93 35.5-8.7 3.3-83.9 32-315 120.2-75.5 28.8-76.6 29.2-106.5 40.6-14.6 5.6-27.6 10.5-29 11.1-1.7.6 249 1 740.9 1 408.9.1 743.2-.1 743-.4z"/><path d="M1169.9 526.6c-13.6-5.2-23.1-15-30.2-31.3-11.2-25.5-11.1-69.9.3-95.1 9.1-19.9 22.3-30.5 39.8-31.9 15.1-1.1 26 2.6 35.6 12.2 9.8 9.7 16.3 23.2 19.7 40.8 2.5 12.6 2.6 39 .3 52.2-4.2 24.1-15.9 43.2-31.2 50.7-6.3 3.1-7.3 3.3-18.7 3.5-8.2.2-13.1-.2-15.6-1.1zM1972 468.3c0-2.5 4.5-15.2 13.6-38l13.6-34.3h7.4l14.2 34.3c9.8 23.6 14.2 35.4 14.2 38v3.7h-63v-3.7z"/></g><g fill="#8c002f"><path d="M1108 772c-19-.4-42.4-1-52-1.4-9.6-.4-29.9-1.1-45-1.6-15.1-.6-31.5-1.2-36.5-1.5-4.9-.3-18.2-1-29.5-1.5-338.9-17-635.3-65.7-816.1-134.1-40.1-15.1-78.3-33.2-103.4-48.8l-9-5.6 68-.6c37.4-.3 125.4-.8 195.6-1l127.5-.4 8.5 5.2c97.6 59.7 315.5 109.4 586.4 133.7 25.3 2.3 37.1 3.3 80 6.6 46.8 3.6 144.3 8.4 195.5 9.5 13.5.3 29.5.8 35.5 1 12.1.5 184 .5 192 0 2.8-.1 15.6-.6 28.5-.9 12.9-.4 26.7-.9 30.5-1.1 3.9-.2 13.8-.7 22-1 8.3-.4 16.8-.8 19-1 2.2-.2 9.4-.7 16-1 6.6-.3 14.7-.8 18-1 3.3-.3 13-1 21.5-1.5 286.7-19.6 609.4-80.6 785.3-148.7 14.5-5.6 19.7-7 17.5-4.8-1.4 1.4-41.5 18.1-61.3 25.5-177.3 66.6-453.8 124.1-740 153.9-66 6.9-148.8 13.6-206 16.6-5.5.3-13.6.8-18 1-4.4.3-24.4 1.2-44.5 2s-42.6 1.7-50 2c-21.8.9-198.5 1.3-236 .5zM958.1 314.6c.3-.4 49.3-19.2 87.4-33.6 5.5-2.1 34.8-13.2 65-24.8 121.4-46.3 305.6-116.7 315-120.2 5.5-2.1 35-13.3 65.5-25 59.2-22.6 155.9-59.5 200.8-76.6 15-5.7 27.4-10.4 27.7-10.4.3 0 91.7 34.8 161.5 61.5 13.5 5.1 41.6 15.9 62.5 23.8 157.1 60 206.1 78.7 220.5 84.2 9.1 3.4 32.5 12.4 52 19.8 91.1 34.8 106.7 40.7 138.5 52.9 18.7 7.1 54.7 20.8 80 30.5 25.3 9.6 46.2 17.7 46.4 17.9.2.2-342.4.4-761.4.4s-761.6-.2-761.4-.4z"/></g><path d="M200.8 532.9c-21.1-2.4-36.3-13.6-41.9-30.7-2-6.1-2.3-9.2-2.6-35.2-1.1-94.3-.5-86.6-7.4-89.4-2.2-.9-5.7-1.6-7.9-1.6-4 0-4 0-4-4v-4h60v8h-4.4c-6.3 0-10.4 1.8-12.4 5.4-1.5 2.8-1.7 7.8-2 49.2-.4 63 .9 71.4 13.4 84.1 5.3 5.3 7 6.4 13.3 8.3 5.8 1.8 8.9 2.2 15.4 1.8 18-1 27.9-10.5 32.1-31 2.3-11.1 2.5-105.8.2-111.2-1.8-4.2-6.3-6.6-12.6-6.6h-4v-8h52v8h-4.7c-7 0-11.5 2.6-13 7.5-.8 2.8-1.2 17.3-1.2 49-.1 46.2-.9 60.3-3.8 69-4.9 14.9-18.7 26.5-35.8 30-9.1 1.8-20.3 2.4-28.7 1.4zM504.5 532.5c-9.7-1.6-15.4-3.6-21.6-7.6-9.6-6.1-16.4-16-19-27.5-.7-3-1.4-25.3-1.8-58.9-.5-48.8-.8-54.3-2.4-57.2-1.9-3.5-6.3-5.3-12.9-5.3-3.8 0-3.8 0-3.8-4v-4h60v8h-4.6c-6.2 0-11 2.4-12.5 6.3-1.7 4.3-2.5 81.3-1 97.6 2.2 23.8 8.4 35.1 23.1 42 4.8 2.3 6.8 2.6 16 2.6 9.5 0 11.1-.3 16.2-2.8 9.4-4.6 14.8-12.5 18.5-27.2 1.6-6.2 1.8-12.6 1.8-57.5 0-38.9-.3-51.3-1.3-54.2-1.6-4.4-6-6.8-12.6-6.8H542v-8h52v8h-4.6c-5.8 0-10.7 2.3-12.5 5.8-1.1 2.1-1.5 14.1-2 56.7-.6 57.8-.8 59.4-6 69.7-2.9 5.6-12.2 14.6-18.6 18.1-11.2 6-31 8.7-45.8 6.2zM1174.8 532.9c-25.4-2.8-45.8-18.3-57.4-43.5-6.1-13.1-7.8-22.5-7.8-41.9.1-14 .5-18.3 2.2-24.5 3.3-12.1 6-18.4 11.4-26.7 9.6-14.7 22.5-24.8 38.3-30 7-2.3 9.8-2.6 22-2.7 8.8-.1 16 .4 19.5 1.3 8 2 20.7 8.2 27.1 13.4 11.4 9.1 21.7 26.6 26.5 45.2 2.3 8.6 2.7 12.1 2.7 25 0 16.2-1.2 23.9-5.8 36.1-7.1 19-22 35.4-38.6 42.8-10.6 4.7-27.4 7-40.1 5.5zm26.5-11.7c11.3-5.6 21.5-18.7 27.1-34.8 7.7-21.9 7.5-56.6-.4-77.9-5.4-14.4-16-27.9-25.8-32.9-6.6-3.3-15.2-4.9-22.2-4.1-23.9 2.8-41.5 28.2-44.9 64.5-3.1 33.6 6.1 64.2 23.9 79.7 7.9 6.8 15.3 9.3 26.6 9 7.9-.2 10-.7 15.7-3.5zM854 531.7c-.8-.8-25.6-1.6-65.7-2.3-21.1-.4-38.4-1.1-38.4-1.6-.1-.4-.1-1.5-.1-2.3 0-5 .1-5.1 5.4-5.3 2.8-.1 6.3-.9 7.6-1.8 5.2-3.4 5.2-3.4 5.1-70.6-.1-34.3-.4-63.4-.8-64.8-1.1-4-6.5-7-12.8-7h-5.4l.3-3.7.3-3.8 52.6-.3 52.6-.2 1.2 12.2c.7 6.8 1.4 13.8 1.8 15.6l.5 3.2h-9.8l-1.7-7.2c-3-12.7-5.3-13.6-35.9-14.1l-19.8-.3V440h16c17.5 0 24.9-1.1 27.6-4.1 1-1.2 1.9-4.1 2.2-7.4l.4-5.5h9.8v43h-10v-4c0-5.8-2.4-10.8-5.7-12.1-1.5-.7-11.2-1.4-21.5-1.7l-18.8-.5v29.4c0 27.7.1 29.6 2 32.7 1.2 2 3.8 4.1 6.4 5.3 10.2 4.4 37.9 5.3 43.3 1.3 4.4-3.3 6.2-6.5 8-14.1l1.7-7.3h4.2c2.4 0 4.5.3 4.7.8.3.4-.3 8.6-1.2 18.2-1.5 16.2-1.7 17.5-3.6 17.8-1.2.2-2.3.1-2.5-.1zM1569.9 530.9c-5.2-.4-28.6-1-52.1-1.4l-42.8-.8v-8.2l5-.3c6.6-.3 10.5-2.4 11.9-6.3.8-2.3 1.1-22.4 1.1-66 .1-70.7.2-68.9-6.7-70.8-2.1-.6-5.5-1.1-7.5-1.1-3.8 0-3.8 0-3.8-4v-4h52.5c41.3 0 52.5.3 52.5 1.3 0 .6.7 7 1.5 14.2.8 7.2 1.5 13.6 1.5 14.3 0 .8-1.7 1.2-5 1.2-4.6 0-5-.2-5-2.3 0-4.9-3.1-12.6-6-15-3.6-3-7.9-3.5-33.2-4l-17.8-.2V440h16.8c24.9-.1 28.1-1.3 29-11.4l.4-5.6h9.8v43h-10v-4.5c0-5.7-2.3-10.3-5.8-11.6-1.5-.6-11.1-1.3-21.4-1.6l-18.8-.6v28.9c0 25.5.2 29.3 1.8 32.4 3.3 6.7 14.6 10 34.7 10 13.5 0 17.6-1.8 21-9.2 1.3-2.9 2.7-7.4 3-10l.7-4.8h4.9c4 0 4.9.3 4.9 1.8 0 .9-.7 8.2-1.5 16.2s-1.5 15.5-1.5 16.7c0 1.8-.5 2.2-2.3 2-1.3-.1-6.6-.5-11.8-.8zM1916 531.7c-.9-.8-25.4-1.7-64.7-2.4l-39.3-.6v-8.3l5.2-.2c2.8-.1 6.3-.9 7.6-1.8 5.3-3.5 5.3-3.6 5.3-69.6-.1-33.6-.3-62.6-.7-64.4-1-5.2-4.5-7.7-11.4-8.2l-6-.4V368h52.5c49.3 0 52.5.1 52.5 1.8 0 .9.7 7.5 1.5 14.7.8 7.2 1.5 13.3 1.5 13.8 0 .4-2.2.7-4.8.7h-4.8l-1.3-6.6c-2.6-13-5.5-14.2-36.3-14.7l-19.8-.4V440h16c17.5 0 24.9-1.1 27.6-4.1 1-1.2 1.9-4.1 2.2-7.4l.4-5.5h9.8v43h-10v-4c0-5.8-2.4-10.8-5.7-12.1-1.5-.6-11.2-1.3-21.5-1.6l-18.8-.6v29.4c0 27.7.1 29.6 2 32.7 3.8 6.2 15 9.1 34.4 9.2 16.2 0 20.8-3.5 23.7-18.3l1.2-5.7h9.8l-.7 6.3c-.3 3.4-1.1 11.6-1.7 18.2-1.1 10.9-1.4 12-3.2 12.3-1.2.2-2.3.1-2.5-.1zM2183 530c-6.3-.4-29.2-.8-50.7-.9l-39.3-.1v-8.6l4.9-.1c2.6 0 6.1-.7 7.7-1.4 6-2.9 5.9-1.3 5.9-70.9 0-58.6-.1-63.7-1.8-66.7-1.9-3.5-6.3-5.3-12.9-5.3-3.8 0-3.8 0-3.8-4v-4h60v8h-4.7c-7 0-11.5 2.6-13 7.5-.8 2.9-1.2 20.4-1.2 62.5-.1 53.8 0 58.8 1.7 62 .9 1.9 3.1 4.2 4.7 5.2 4.6 2.6 16.4 4 30.9 3.6 10.7-.2 13.7-.6 16-2.1 3.2-2.2 6.9-9.7 8.7-17.9l1.2-5.8h9.7l-.5 3.8c-.5 3.5-3.5 33.9-3.5 35.5 0 .8-2.4.7-20-.3zM18.4 527.6c-.3-.8-.4-2.7-.2-4.3.3-2.6.6-2.8 5.3-3.1 6.6-.3 9.9-1.7 11.6-5 2-3.9 2.6-124.5.6-131.2-1.5-5.4-5.7-8-12.9-8H18v-8h105l.4 2.2c.7 3.4 2.6 22.4 2.6 25.9 0 3-.1 3-4.7 2.7l-4.8-.3-.6-4.6c-.9-6.4-3.7-11.7-6.8-13.3-3.8-2-10.2-2.5-31.1-2.8l-18.5-.3-.3 32.8L59 443h17.2c25.4-.1 28-1.1 29.3-11.5l.7-5.5h4.9c4.9 0 5 .1 4.5 2.8-.2 1.5-.5 11.1-.5 21.5L115 469h-8.8l-.7-5.5c-.4-3.6-1.5-6.5-3-8.3l-2.3-2.7-20.7-.3-20.6-.3.3 29.8c.3 26 .5 30.2 2 33 2.1 3.7 5.8 5.2 14.6 5.4l6.2.2v8.7H50.5c-26.3 0-31.7-.2-32.1-1.4zM333 524.6v-4.4l5.6-.1c8-.1 12.1-1.7 14.2-5.4 1.6-2.9 1.7-8.9 2-70.4l.3-67.3-13.8.6c-14 .5-22 2-26.1 4.9-2.9 2.1-5.9 8.2-7.5 15.3l-1.3 5.7-4.7.3-4.7.3.1-4.3c0-2.4.8-11 1.7-19.3l1.7-15 7 .3c3.9.1 13.8.6 22 1.2 17.8 1.1 71.9.5 89.4-1 6.8-.6 12.7-.7 13.1-.3.6.7 4.1 31.9 4 36.6 0 1.4-.9 1.7-4.9 1.7h-4.9l-.7-4.7c-1-7.4-4.7-14.7-8.6-17-5.3-3.3-10.4-4.2-24.9-4.5l-13.5-.3v67c0 61.7.1 67.3 1.7 70.2 2 3.6 5.7 5.1 13.8 5.6l5.5.3.3 4.2.3 4.2H333v-4.4zM606.9 528c0-.5-.1-2.5-.2-4.2l-.1-3.3 6-.6c7.9-.7 9-1.4 10.8-6 1.4-3.4 1.6-11.7 1.5-65.7 0-45-.3-62.6-1.2-65.2-1.5-4.4-6.4-7-13-7h-4.8l.3-3.7.3-3.8 36-.3c48.9-.4 58.1 1.1 67.7 10.9 5.1 5.2 6.7 9.1 7.5 18.9 1.6 19.4-8.6 36.5-27.4 46.1l-7.1 3.7 4.3 4c5.2 4.9 9.3 10.8 24.5 35.4 17.6 28.6 20.8 32.5 26.9 33 2.9.2 3.1.4 3.1 4.5v4.3h-31.6l-22.3-38-22.4-38H648v28.9c0 18.4.4 29.9 1.1 32 1.4 4 4 5.4 10.9 6.1 5.3.5 5.5.6 5.5 3.5.1 5.8 1.5 5.5-29.6 5.5-18.5 0-28.9-.4-29-1zm68.2-86.1c10.8-5.8 16.9-15 19.1-29.2 1.4-9.3.2-17.7-3.7-24.2-4.6-7.9-17.4-12.5-34.7-12.5h-7.7l-.3 32.3c-.2 17.7-.2 33.2 0 34.5.3 2.1.7 2.2 10.9 2.2 9.9 0 10.9-.2 16.4-3.1zM943.4 527.6c-.3-.8-.4-2.7-.2-4.3.3-2.7.6-2.8 5.8-3.1 6.7-.3 10-2.5 11.8-7.7 1.9-5.7 1.3-127.9-.6-131.3-1.8-3.1-7-5.2-12.7-5.2H943v-8h60v8h-4.2c-5.3 0-10.9 2.7-12.5 6-.8 1.7-1.2 11.2-1.4 29.8l-.2 27.2 34.4.1 34.4.1v-26.8c0-30.2-.4-32.6-6.1-35-1.9-.8-5.4-1.4-7.9-1.4h-4.5v-8h60v8h-4.5c-6.6 0-10.9 2.1-12.6 6.1-2.2 5.2-2.1 128 .1 132.4 1.9 3.7 5.1 5.3 11.5 5.8l5 .3v7.9l-29.7.3-29.8.2v-8.5l4.8-.2c6.6-.2 9.8-1.7 11.9-5.5 1.6-2.9 1.8-6.7 2.1-34.6l.4-31.2-34.7.2-34.6.3v30.7c.1 24.8.3 31.4 1.5 34.3 1.7 4.1 4.9 5.6 11.8 5.7h4.8v8.8h-29.5c-24.6 0-29.7-.2-30.1-1.4zM1274 524.8v-4.3l5.2-.3c2.8-.1 6.3-.8 7.7-1.5 5.7-2.7 5.6-1.7 5.6-69.7 0-70.2.1-68.7-6.6-71.4-2.2-.9-5.7-1.6-7.9-1.6h-4v-8l19.1.2 19.1.3 5.7 11c3.2 6.1 12.4 24.1 20.6 40 16 31.5 30.6 59.8 31.2 60.4.2.4 8.9-17.3 15.1-30.9 1.1-2.5 6.5-14 11.9-25.5 5.4-11.6 13.5-28.7 17.8-38.2l8-17.2 19.8-.1h19.7v8h-4.5c-6.6 0-10.9 2.1-12.6 6.1-2.2 5.2-2.1 128 .1 132.4 1.9 3.8 5.2 5.3 11.8 5.7l5.2.3v8.5h-58v-8.7l5.1-.2c6.7-.2 10.5-2.2 11.8-6.3 1.2-3.7 2.1-123.2.9-122-.6.6-13 26.5-23.3 48.7-14 30.2-33.9 72.1-34.4 72.7-.4.5-4.7-7-9.6-16.5-14.3-27.6-34-66.1-41.8-81.4l-7.2-14.3-.3 53.9c-.2 57.9-.1 59.7 4.8 63.2 1.5 1.1 4.8 2 8 2.2 3.5.2 5.5.8 5.4 1.5-.1.7-.2 2.6-.2 4.2l-.2 3h-49v-4.2zM1668.9 528.5c0-.3-.1-2.2-.1-4.2l-.1-3.7 4.9-.3c6.9-.5 10-2 11.8-5.8 1.4-2.9 1.6-11.1 1.6-65.9 0-69.8.1-68.4-6.4-71.1-2-.8-5.4-1.5-7.6-1.5h-4v-8h37.4c40 0 47.3.6 57.6 5.1 5.9 2.5 12.4 9.4 14.1 14.8 1.7 5.9 2.2 17.2 1 23.3-2.9 13.6-13 26.1-26.8 33l-7 3.5 4.7 4.4c4.8 4.6 12.9 16.5 24.5 35.9 14.5 24.4 20.7 31.9 26.3 32.3 3.1.2 3.2.4 3.2 4.5v4.2h-31.5l-4.6-7.7c-2.5-4.3-12.6-21.4-22.3-38l-17.8-30.3H1710v28.3c0 16.4.4 29.8 1.1 31.9 1.2 4.5 4.4 6.5 11.4 7l5 .5.3 4.1.3 4.2h-29.5c-16.3 0-29.6-.2-29.7-.5zm66.6-85.6c13.9-6.5 22.6-22.8 21.2-39.9-.7-8.9-3.1-14.3-8.3-18.9-5.7-5-13.7-7.3-27.6-7.9l-10.8-.5V445h10.5c8.6 0 11.3-.4 15-2.1zM1929 524.7c0-4.3 0-4.3 3.8-4.5 8.4-.5 10.8-4.8 31.3-56.2 7.8-19.5 20.1-50.1 27.4-68l13.2-32.5 3.9-.3 4-.3 7.6 18.3c31.5 75.4 52.9 126.1 55 130.3 3.1 6.1 5.6 8.4 9.1 8.7 2.5.2 2.7.6 2.7 4.5v4.3l-23.7-.2-23.8-.3-.3-3.7c-.2-2.1 0-3.8.5-3.9.4-.1 2.6-.3 4.7-.5 5.7-.5 6.6-1 6.6-4.2 0-5.1-11.7-34.7-14.5-36.8-1.7-1.3-56.8-2-62.9-.9-1.9.4-3.6 1.4-3.9 2.3-.3 1-3.1 8.2-6.2 16.2-3.2 8-5.7 15.6-5.7 16.8-.1 3.4 2.5 5.5 7.4 6.1 4 .6 4.3.8 4.3 3.6.1 5.7.8 5.5-20.6 5.5H1929v-4.3zm103-56.4c.1-1.6-28.4-69.3-29.1-69.3-.6 0-26.5 63.7-27.7 68.3-.4 1.6 1.4 1.7 28.2 1.7 15.7 0 28.6-.3 28.6-.7zM2246.4 527.6c-.3-.8-.4-2.7-.2-4.2.3-2.6.6-2.8 6.3-3.1 3.3-.2 7.5-1.1 9.5-2.1 6-3 6-2.9 5.8-75.7l-.3-65-12.5.3c-21.4.4-27.4 2.6-31.5 11.5-1.4 2.8-2.8 7.3-3.1 10l-.7 4.7h-4.8c-4.9 0-4.9 0-4.9-3.2.1-5.5 3.5-34.7 4.2-35.3.3-.3 5.9-.1 12.4.5 24.4 2.2 85.3 2 111.4-.5l7.6-.7 1.7 17.4c2.4 23.8 2.6 22-3 21.6l-4.7-.3-1.3-5.7c-3.6-16.3-8.7-19.3-34.1-20.2l-13.3-.4.3 67.1c.3 61.5.4 67.5 2 70.4 2.1 3.7 5.8 5.1 14.1 5.4l5.7.2v8.7h-33c-27.6 0-33.2-.2-33.6-1.4zM2386.4 527.6c-.3-.8-.4-2.7-.2-4.3.3-2.7.5-2.8 6.3-3.1 7.4-.3 10.9-1.6 13.2-5.1 1.6-2.3 1.8-5.7 2.1-32.2l.3-29.6-10.4-17.9c-5.7-9.8-13.9-24.1-18.3-31.8-10.9-19.1-18.8-27.6-25.9-27.6-2.3 0-2.5-.4-2.5-4v-4h52v4c0 3.9-.1 4-3.3 4-7 0-7.4 4.6-1.4 16.2 5.9 11.5 27.1 48.8 27.7 48.8.8 0 28.1-51.7 29.9-56.5 1.4-4.1 1.4-4.6 0-6.1-.9-.8-3.5-1.8-5.8-2.1-4-.6-4.1-.7-4.1-4.4V368h40v8h-4.2c-8.6 0-11.5 3.3-24.8 28-4.5 8.5-9.7 18.2-11.5 21.5-1.8 3.3-5.9 11-9.1 17l-5.9 11V482c0 26.9.1 28.7 2.1 32 2.6 4.5 5.8 6 13.3 6.3l6.1.2v8.5h-32.5c-27.2 0-32.7-.2-33.1-1.4z"/></svg>