<svg xmlns="http://www.w3.org/2000/svg" id="Layer_1" data-name="Layer 1" viewBox="0 0 652.93 233.15"><defs><clipPath id="clippath"><path d="M53.95 49h549.13v135.59H53.95z" style="stroke-width:0;fill:none"/></clipPath><style>.cls-2,.cls-3{stroke-width:0}.cls-2{fill:#93ac8c}.cls-3{fill:#616a6e}</style></defs><path d="m228.51 49-37.62 28.38V67h-7.67v16.17L53.89 180.75 229.51 58l76.63 48.5L228.51 49" class="cls-3" style="clip-path:url(#clippath)"/><path d="M167.14 178.25h179.04v2.33H167.14zM356.52 183.76c.16-.08.39-.14.7-.18.31-.04.58-.1.83-.19.03-.12.05-.2.06-.25.01-.08.02-.36.02-.84v-1.96l.03-1.05-.02-.82.02-.47c.02-.64.03-1.23.03-1.79 0-1.22-.01-1.99-.05-2.33l-.53-.11c-.49-.03-.81-.06-.98-.09l-.02-.53.04-.1c.3-.05.58-.07.83-.07h.84c.43.03.67.05.71.05l.48-.03 1.13-.05c.71-.07 1.45-.11 2.23-.11 1.24 0 2.22.31 2.95.92.73.61 1.09 1.31 1.09 2.1 0 .59-.2 1.13-.59 1.61-.39.48-1 .85-1.82 1.09.07.12.17.27.29.43.25.35.46.65.61.9l1.44 2.27c.36.6.6.95.71 1.06.11.1.34.21.69.34.27.1.48.2.62.3.04.1.05.19.05.26v.2h-.43l-.47-.05h-.37a4.78 4.78 0 0 0-.71-.04h-.9c-.07 0-.28.01-.63.05-.16.02-.29.03-.39.04l-.31-.58c-.25-.44-.43-.77-.53-.98-.26-.57-.72-1.47-1.36-2.71-.3-.57-.51-.9-.63-.97-.18-.12-.49-.18-.93-.18-.12 0-.33 0-.61.02-.02.17-.03.37-.03.61l.04 1.95-.05 1.65c.17.1.39.17.66.23.47.09.87.21 1.21.33 0 .29-.01.5-.04.65h-.22l-.37.02c-1.3-.11-2.07-.17-2.3-.17h-.33l-1.25.08c-.38.04-.73.06-1.04.06h-.39c-.01-.15-.02-.24-.02-.28 0-.06 0-.15.03-.27m4.07-5.68c.29.01.5.02.63.02 1.02 0 1.75-.18 2.18-.54.43-.36.64-.83.64-1.43 0-.37-.05-.72-.16-1.04-.11-.32-.24-.57-.39-.72-.22-.23-.51-.4-.88-.52-.26-.09-.69-.13-1.27-.13-.28 0-.51.01-.71.04l-.02.17.02 1.19-.03.72v.96c0 .27-.01.62-.02 1.05v.25ZM371.89 172.93c.34.02.64.04.89.08.48.06 1.03.1 1.65.1.22 0 .77-.02 1.67-.05 1.34-.05 2.56-.08 3.64-.08l1.64-.02c.37 0 .91.04 1.63.13.11.12.16.27.16.47v1.81l.02.36s0 .09-.01.16l-.37.02s-.15 0-.31-.02c-.05-.12-.13-.29-.22-.52l-.36-.62c-.14-.26-.33-.53-.58-.81-.15-.04-.34-.06-.58-.07-.06 0-.24-.02-.55-.04-.56-.05-1.16-.07-1.81-.07-.74 0-1.39.01-1.97.04-.02.14-.03.72-.03 1.73v2.58c.15.02.28.03.39.03 1.08 0 1.85-.02 2.31-.06.46-.04.74-.1.85-.17.11-.07.21-.2.29-.38.05-.13.16-.56.32-1.29h.64c.02.52.04.92.04 1.18 0 .61 0 1.01-.01 1.18 0 .17-.01.31-.01.41 0 .16 0 .41.03.76.02.35.03.61.03.78v.19h-.64c-.03-.09-.07-.29-.14-.58-.12-.54-.23-.88-.33-1.02-.07-.11-.19-.18-.36-.24-.12-.04-.57-.06-1.34-.06-.91 0-1.6.02-2.06.07v.3c0 .7.01 1.28.04 1.74l-.02 1.9c0 .22.08.38.24.46.25.12 1 .18 2.27.18.84 0 1.55-.06 2.13-.18.4-.09.76-.28 1.07-.59.41-.39.75-.94 1.02-1.65.19-.02.34-.03.46-.03h.3c-.02.14-.03.27-.04.37l-.05.26-.33 1.66-.16 1c-.39.02-.7.03-.93.03-.34 0-1.24-.03-2.71-.09-1.03-.04-2.27-.06-3.73-.06-.73 0-1.61.03-2.67.09h-.38l-1.1.03v-.61c.11-.03.34-.06.69-.1.63-.07 1.06-.16 1.3-.28.07-.17.1-.38.1-.64 0-.1 0-.27-.01-.51v-.27l-.02-3.31v-.99l-.04-1.4v-.99l-.07-1.09c0-.03 0-.09-.02-.18a.485.485 0 0 0-.27-.12c-.07-.01-.16-.03-.27-.05-.34-.07-.67-.11-.99-.12-.12 0-.25-.02-.4-.04l.05-.7M387.25 184.29l.02-.6c.11-.03.32-.08.6-.13.46-.09.75-.17.85-.24.1-.07.22-.24.37-.51l1.82-4.64 2.14-5.45h.98l.08.16 1.57 3.62c.36.77.68 1.51.96 2.23.28.72.53 1.31.73 1.77.12.28.29.69.5 1.24.11.3.28.67.5 1.12.12.25.21.39.27.43.11.09.28.15.53.18.24.03.51.1.79.2.03.19.05.34.05.43v.19c-.45 0-.94-.02-1.47-.06-.54-.04-1.02-.06-1.45-.06-.48 0-.82 0-1.03.02l-1.54.08-.44.02c0-.21 0-.4.03-.59l1-.21c.3-.08.48-.13.52-.17.06-.06.09-.12.09-.2s-.01-.16-.05-.24l-.36-.86-.71-1.72h-3.45c-.13.27-.39.96-.8 2.05-.11.31-.17.52-.17.63 0 .15.04.26.13.32.14.11.4.19.8.24.06.01.27.04.64.1v.44c0 .06 0 .13-.02.2-.37 0-1.27-.05-2.68-.15l-.37.06c-.45.07-.87.11-1.27.11h-.16m4.25-4.93c1.41.02 2.24.03 2.49.03h.23c-.18-.53-.42-1.14-.71-1.83-.29-.69-.52-1.22-.7-1.58l-1.31 3.39ZM402.9 183.57c.19-.05.45-.1.79-.15.34-.05.54-.07.6-.07.24 0 .39-.04.47-.11.04-.14.05-.26.05-.35l-.02-1.13.05-1.14v-2.5l.04-1.96v-1.01c-.04-.61-.08-.95-.12-1.01-.04-.06-.21-.14-.52-.23-.03-.01-.14-.06-.34-.13-.15-.06-.29-.1-.41-.12-.21-.05-.36-.11-.44-.18-.01-.15-.02-.27-.02-.35v-.21c.05-.03.11-.04.17-.04.14 0 .67.02 1.57.07h2.25c.42 0 .95-.02 1.6-.07.19-.02.3-.02.33-.02.09 0 .15.02.19.07.05.06.07.18.07.35 0 .13-.03.23-.1.3-.04.04-.17.08-.4.1l-1.12.26s-.08.04-.15.07c-.02.04-.04.08-.05.11v.25l-.04.55v.25s0 .19-.02.48v.23c0 .09 0 .25.02.48.02.35.03.66.03.92 0 .3 0 .65-.03 1.05v.57l-.04 4.16c0 .18.03.29.09.34l.86.03h1.1c.97 0 1.73-.11 2.29-.32.42-.16.69-.33.81-.49.21-.17.37-.37.5-.57s.28-.54.44-1.01h.29c.14 0 .31.01.49.04v.24c0 .42-.05 1.15-.16 2.21-.04.42-.08.68-.13.77-.14.02-.23.04-.26.04h-.81c-.05 0-.41-.02-1.08-.06-.12 0-.7-.03-1.73-.06s-2.04-.05-3.03-.05l-1.85.05c-.71.02-1.38.05-2 .1H402.82c-.01-.06-.02-.12-.02-.17 0-.24.02-.42.06-.54M424.95 172.93c.34.02.64.04.9.08.48.06 1.03.1 1.65.1.22 0 .77-.02 1.67-.05 1.34-.05 2.56-.08 3.64-.08l1.64-.02c.37 0 .91.04 1.63.13.11.12.16.27.16.47v1.81l.02.36v.16l-.37.02s-.15 0-.31-.02c-.05-.12-.13-.29-.22-.52l-.36-.62c-.14-.26-.33-.53-.58-.81-.15-.04-.34-.06-.58-.07-.06 0-.24-.02-.55-.04-.56-.05-1.16-.07-1.81-.07-.74 0-1.39.01-1.97.04-.02.14-.03.72-.03 1.73v2.58c.15.02.28.03.39.03 1.08 0 1.85-.02 2.31-.06.46-.04.74-.1.85-.17.11-.07.2-.2.29-.38.06-.13.16-.56.32-1.29h.64c.02.52.04.92.04 1.18 0 .61 0 1.01-.01 1.18 0 .17-.01.31-.01.41 0 .16 0 .41.03.76.02.35.03.61.03.78v.19h-.64c-.02-.09-.07-.29-.14-.58-.12-.54-.23-.88-.33-1.02-.07-.11-.19-.18-.36-.24-.12-.04-.57-.06-1.34-.06-.91 0-1.6.02-2.06.07v.3c0 .7.01 1.28.04 1.74l-.02 1.9c0 .22.08.38.24.46.25.12 1 .18 2.27.18.84 0 1.55-.06 2.13-.18.4-.09.76-.28 1.07-.59.41-.39.75-.94 1.02-1.65.19-.02.34-.03.46-.03h.3c-.02.14-.03.27-.05.37l-.05.26-.33 1.66-.16 1c-.39.02-.7.03-.93.03-.34 0-1.24-.03-2.7-.09a98.53 98.53 0 0 0-3.73-.06c-.72 0-1.61.03-2.67.09H426l-1.09.03v-.61c.11-.03.34-.06.69-.1.63-.07 1.06-.16 1.3-.28.07-.17.1-.38.1-.64v-.78l-.02-3.31v-.99l-.04-1.4v-.99l-.07-1.09c0-.03 0-.09-.02-.18a.485.485 0 0 0-.27-.12c-.07-.01-.16-.03-.27-.05a5.93 5.93 0 0 0-.99-.12c-.11 0-.25-.02-.4-.04l.04-.7M448.19 173.19c.06.2.11.5.16.9.07.6.11 1.07.11 1.4 0 .1-.01.22-.04.34l-.09.03-.65-.04-.11-.02c-.27-.77-.53-1.3-.8-1.57-.46-.47-1-.7-1.62-.7-.59 0-1.06.15-1.4.45-.35.3-.52.68-.52 1.12 0 .38.17.74.51 1.08.34.35 1.05.68 2.15.99.37.11.81.27 1.33.51.52.23.92.49 1.19.76.36.36.61.71.74 1.05.14.34.2.76.2 1.26 0 .55-.11 1.09-.32 1.62-.11.28-.3.55-.55.8-.18.18-.46.38-.84.62-.38.24-.77.41-1.18.51-.41.1-.93.16-1.57.16-.42 0-.92-.06-1.51-.18l-1.08-.31c-.3-.08-.49-.15-.57-.22-.03-.02-.06-.08-.08-.17v-.1c0-.07-.02-.47-.05-1.2-.01-.38-.02-.65-.02-.81v-.33l.84-.02c.29.65.48 1.05.56 1.18.19.3.39.54.62.73.23.18.49.33.81.44.31.11.65.16 1.02.16.33 0 .68-.07 1.07-.2s.71-.36.94-.66.36-.64.36-.99c0-.43-.21-.84-.62-1.2-.25-.23-.93-.53-2.04-.91-1.11-.38-1.88-.72-2.3-1.02-.43-.3-.77-.7-1.01-1.2-.25-.5-.37-.98-.37-1.44 0-.93.34-1.72 1.03-2.37.69-.65 1.7-.97 3.04-.97.29 0 .72.05 1.29.15.34.06.8.18 1.36.37M453.82 172.44h.56c.04.06.07.11.09.14.17.28.3.47.39.56.08.02.49.03 1.24.03h1.24l.18-.02h5.92l.53-.07c.08-.05.16-.19.25-.43.02-.05.06-.13.1-.22h.67V175.48c0 .15-.01.29-.04.4-.25.08-.46.12-.65.14-.16-.23-.33-.56-.51-.99-.18-.43-.3-.67-.35-.72a.47.47 0 0 0-.25-.15c-.14-.03-.78-.04-1.92-.04-.17 0-.38.01-.63.03-.03.23-.04.42-.04.56v3.76l.03 2.78v1.14c0 .4.03.71.1.91.1.04.27.08.54.11.05 0 .27.05.67.14.18.04.34.09.48.14.03.21.05.34.05.39 0 .05 0 .13-.03.23h-.33c-.62 0-1.15-.02-1.58-.06-.43-.04-1.22-.07-2.36-.07-.18 0-.71.04-1.59.11-.34.02-.57.03-.67.03 0-.09-.01-.16-.02-.2v-.27c.13-.17.38-.3.75-.38.63-.15 1.06-.28 1.3-.39.06-.11.1-.26.11-.44.04-.7.06-1.82.06-3.35l-.04-3.32c0-.91-.02-1.47-.05-1.66a.228.228 0 0 0-.06-.12c-.03-.03-.07-.04-.13-.05-.19-.02-.8-.03-1.83-.03-.57 0-.95.05-1.14.16-.26.15-.65.54-1.17 1.19-.15.19-.26.28-.33.28-.28-.14-.46-.26-.54-.34.19-.38.45-1.14.78-2.28.1-.33.17-.56.21-.68M466.82 184.29l.02-.6c.11-.03.32-.08.61-.13.46-.09.75-.17.85-.24.1-.07.22-.24.37-.51l1.82-4.64 2.14-5.45h.98l.08.16 1.57 3.62c.36.77.67 1.51.96 2.23.28.72.53 1.31.73 1.77.12.28.29.69.5 1.24.11.3.27.67.5 1.12.12.25.21.39.27.43.11.09.28.15.53.18.24.03.51.1.79.2.03.19.05.34.05.43v.19c-.45 0-.94-.02-1.47-.06-.54-.04-1.02-.06-1.45-.06-.48 0-.82 0-1.03.02l-1.54.08-.44.02c0-.21 0-.4.03-.59l1-.21c.3-.08.48-.13.52-.17.06-.06.09-.12.09-.2s-.02-.16-.05-.24l-.36-.86-.71-1.72h-3.45c-.13.27-.39.96-.8 2.05-.12.31-.17.52-.17.63 0 .15.04.26.13.32.14.11.4.19.8.24.05.01.27.04.64.1v.44c0 .06 0 .13-.02.2-.37 0-1.27-.05-2.68-.15l-.37.06c-.45.07-.87.11-1.27.11h-.16m4.25-4.93c1.41.02 2.24.03 2.49.03h.23c-.18-.53-.42-1.14-.7-1.83-.29-.69-.52-1.22-.71-1.58l-1.31 3.39ZM483.02 172.44h.56c.04.06.07.11.09.14.17.28.3.47.39.56.08.02.49.03 1.24.03h1.24l.18-.02h5.92l.53-.07c.08-.05.16-.19.25-.43.02-.05.06-.13.1-.22h.67V175.48c0 .15-.01.29-.04.4-.25.08-.46.12-.65.14-.16-.23-.33-.56-.51-.99-.18-.43-.3-.67-.35-.72a.47.47 0 0 0-.25-.15c-.14-.03-.79-.04-1.92-.04-.17 0-.38.01-.63.03-.03.23-.05.42-.05.56v3.76l.03 2.78v1.14c0 .4.03.71.1.91.1.04.27.08.54.11.05 0 .27.05.67.14.18.04.34.09.48.14.03.21.04.34.04.39 0 .05 0 .13-.03.23h-.33c-.62 0-1.15-.02-1.58-.06-.43-.04-1.22-.07-2.36-.07-.18 0-.71.04-1.59.11-.34.02-.57.03-.67.03 0-.09-.01-.16-.02-.2v-.27c.13-.17.38-.3.75-.38.63-.15 1.06-.28 1.3-.39.06-.11.1-.26.11-.44.04-.7.06-1.82.06-3.35l-.04-3.32c0-.91-.02-1.47-.06-1.66a.228.228 0 0 0-.06-.12c-.03-.03-.07-.04-.13-.05-.19-.02-.79-.03-1.83-.03-.57 0-.95.05-1.14.16-.26.15-.65.54-1.17 1.19-.15.19-.26.28-.33.28-.28-.14-.45-.26-.54-.34.19-.38.45-1.14.78-2.28.1-.33.16-.56.21-.68M498.01 172.93c.34.02.64.04.9.08.48.06 1.03.1 1.65.1.22 0 .77-.02 1.67-.05 1.34-.05 2.56-.08 3.64-.08l1.64-.02c.37 0 .91.04 1.63.13.11.12.16.27.16.47v1.81l.02.36v.16l-.37.02s-.15 0-.31-.02c-.05-.12-.13-.29-.22-.52l-.36-.62c-.14-.26-.33-.53-.58-.81-.15-.04-.34-.06-.58-.07-.06 0-.24-.02-.55-.04-.56-.05-1.16-.07-1.81-.07-.74 0-1.39.01-1.97.04-.02.14-.03.72-.03 1.73v2.58c.15.02.28.03.39.03 1.08 0 1.85-.02 2.31-.06.46-.04.74-.1.85-.17.11-.07.2-.2.29-.38.06-.13.16-.56.32-1.29h.64c.02.52.04.92.04 1.18 0 .61 0 1.01-.01 1.18 0 .17-.01.31-.01.41 0 .16 0 .41.03.76.02.35.03.61.03.78v.19h-.64c-.02-.09-.07-.29-.14-.58-.12-.54-.23-.88-.33-1.02-.07-.11-.19-.18-.36-.24-.12-.04-.57-.06-1.34-.06-.91 0-1.6.02-2.06.07v.3c0 .7.01 1.28.04 1.74l-.02 1.9c0 .22.08.38.24.46.25.12 1 .18 2.27.18.84 0 1.55-.06 2.13-.18.4-.09.76-.28 1.07-.59.41-.39.75-.94 1.02-1.65.19-.02.34-.03.46-.03h.3c-.02.14-.03.27-.05.37l-.05.26-.33 1.66-.16 1c-.39.02-.7.03-.93.03-.34 0-1.24-.03-2.7-.09-1.03-.04-2.27-.06-3.73-.06-.72 0-1.61.03-2.67.09h-.38l-1.1.03v-.61c.11-.03.34-.06.69-.1.63-.07 1.06-.16 1.3-.28.07-.17.1-.38.1-.64v-.78l-.02-3.31v-.99l-.04-1.4v-.99l-.07-1.09c0-.03 0-.09-.02-.18a.485.485 0 0 0-.27-.12c-.07-.01-.16-.03-.27-.05a5.93 5.93 0 0 0-.99-.12c-.12 0-.25-.02-.4-.04l.05-.7M532.78 173.67c.04.17.09.51.14 1.01.05.5.08.86.08 1.09 0 .09-.02.2-.06.32-.26 0-.48-.03-.66-.07-.46-.68-.78-1.11-.97-1.29-.35-.33-.8-.61-1.35-.83-.4-.17-.87-.26-1.39-.26-1.01 0-1.89.44-2.66 1.32-.76.88-1.15 2.18-1.15 3.91 0 .81.15 1.6.45 2.37.3.77.75 1.37 1.34 1.8.6.44 1.3.65 2.11.65.39 0 .81-.05 1.25-.15.22-.05.4-.14.54-.28.1-.09.16-.23.19-.42.05-.34.07-.82.07-1.44s0-1.02-.03-1.25a.411.411 0 0 0-.12-.17c-.04-.03-.16-.07-.37-.13l-.8-.21c-.18-.04-.28-.09-.33-.15-.01-.08-.02-.13-.02-.17 0-.08.02-.2.06-.34.11-.04.18-.05.23-.05.66 0 1.23.02 1.71.06.17.01.35.02.55.02l1.43-.02.61-.02c.07 0 .27 0 .6.02v.39c0 .06-.02.14-.06.22-.1.06-.28.13-.52.22-.25.09-.39.15-.42.18a.41.41 0 0 0-.1.22c-.02.1-.03.45-.03 1.04v1.24c-.02.43-.04.68-.04.74 0 .22-.03.35-.09.4-.17.17-.69.35-1.57.56-.88.21-1.9.31-3.06.31-.81 0-1.52-.06-2.12-.19-.6-.13-1.11-.31-1.53-.56-.57-.33-1.05-.73-1.45-1.19-.4-.47-.71-.97-.9-1.52a6.72 6.72 0 0 1-.42-2.31c0-.86.21-1.73.61-2.62.3-.64.73-1.21 1.27-1.73.55-.51 1.23-.92 2.05-1.22.82-.31 1.71-.46 2.68-.46.12 0 .32.01.59.04.74 0 1.42.09 2.06.27.64.18 1.17.39 1.59.64M538.2 183.76c.16-.08.39-.14.7-.18.31-.04.58-.1.83-.19.03-.12.05-.2.05-.25.01-.08.02-.36.02-.84v-1.96l.03-1.05-.02-.82.02-.47c.02-.64.03-1.23.03-1.79 0-1.22-.01-1.99-.04-2.33l-.53-.11c-.49-.03-.82-.06-.98-.09l-.02-.53.04-.1c.3-.05.58-.07.83-.07h.84c.43.03.67.05.71.05l.48-.03 1.13-.05c.7-.07 1.45-.11 2.23-.11 1.24 0 2.22.31 2.95.92.73.61 1.09 1.31 1.09 2.1 0 .59-.2 1.13-.59 1.61-.39.48-1 .85-1.82 1.09.07.12.17.27.29.43.25.35.46.65.61.9l1.44 2.27c.36.6.6.95.71 1.06.11.1.34.21.69.34.27.1.48.2.62.3.04.1.06.19.06.26v.2h-.43l-.47-.05h-.37a4.78 4.78 0 0 0-.71-.04h-.9c-.07 0-.28.01-.63.05-.16.02-.29.03-.39.04l-.31-.58c-.25-.44-.43-.77-.53-.98-.27-.57-.72-1.47-1.36-2.71-.3-.57-.51-.9-.63-.97-.18-.12-.49-.18-.93-.18-.12 0-.32 0-.61.02-.02.17-.03.37-.03.61l.05 1.95-.06 1.65c.17.1.39.17.66.23.47.09.87.21 1.21.33 0 .29-.01.5-.04.65h-.22l-.37.02c-1.3-.11-2.06-.17-2.3-.17h-.34l-1.25.08c-.38.04-.73.06-1.04.06h-.39c-.01-.15-.02-.24-.02-.28 0-.06 0-.15.03-.27m4.07-5.68c.29.01.5.02.63.02 1.02 0 1.75-.18 2.18-.54.43-.36.64-.83.64-1.43 0-.37-.05-.72-.16-1.04-.11-.32-.24-.57-.39-.72-.22-.23-.51-.4-.88-.52-.27-.09-.69-.13-1.27-.13-.28 0-.51.01-.71.04l-.02.17.02 1.19-.03.72v.96c0 .27-.01.62-.02 1.05v.25ZM553.66 178.47c0-.73.14-1.45.43-2.19.21-.53.51-1.01.89-1.45.38-.44.85-.83 1.43-1.17.57-.34 1.16-.59 1.75-.74.6-.15 1.26-.22 2-.22 1.25 0 2.34.23 3.26.69.92.46 1.65 1.07 2.18 1.85.69 1.01 1.03 2.07 1.03 3.19 0 1.66-.58 3.08-1.74 4.26-1.16 1.18-2.77 1.77-4.84 1.77-.51 0-.99-.03-1.44-.1-.34-.05-.63-.11-.89-.19l-.77-.25c-.66-.36-1.18-.73-1.58-1.12-.4-.38-.74-.81-1.01-1.29-.15-.27-.32-.75-.51-1.46-.13-.45-.19-.98-.19-1.58m6.15-4.9c-.52 0-.99.12-1.39.36-.4.24-.71.5-.91.78-.34.49-.59 1.02-.73 1.59-.14.58-.22 1.28-.22 2.1 0 .5.02.86.06 1.08.01.07.03.19.05.36.05.43.12.75.19.95.26.74.44 1.2.55 1.38.18.3.45.59.8.89.18.15.44.29.79.42.34.13.69.19 1.03.19.65 0 1.25-.15 1.81-.44.56-.29 1-.8 1.34-1.5.34-.71.51-1.63.51-2.77 0-.47-.03-1.1-.1-1.9l-.05-.17s-.05-.17-.09-.36c-.22-.96-.65-1.69-1.28-2.19s-1.42-.76-2.37-.76ZM570.7 173.67l-.03-.69h.34c.3 0 .62 0 .95.03.8.04 1.26.06 1.4.06.48 0 .96-.01 1.42-.03.46-.02.87-.03 1.23-.03s.6-.01.73-.02V173.67c-.34.05-.69.07-1.05.07-.34 0-.56.06-.67.19-.07.08-.11.43-.11 1.05v1.6l.05.7-.04 1.52.12 2.2c.03.64.17 1.17.43 1.59.19.31.46.55.81.73.51.25 1 .37 1.49.37.58 0 1.12-.07 1.62-.22.3-.08.58-.22.84-.4.26-.18.45-.35.55-.5.22-.32.37-.62.45-.9.11-.39.17-.99.17-1.8 0-1.42-.08-3.01-.23-4.78l-.04-.47c-.02-.34-.08-.58-.2-.69a.925.925 0 0 0-.65-.27l-.85.02-.12-.03.02-.68h.72l1.73.08c.58 0 1.13-.03 1.65-.08l.15.02c.04.19.05.33.05.4 0 .06-.01.14-.04.24-.22.06-.46.1-.71.11-.4.05-.63.1-.67.13-.09.07-.13.18-.13.32 0 .11 0 .26.03.46.02.15.03.4.03.76v.48c0 .12 0 .24.01.36.02.42.03.85.05 1.28l.09 1.78c0 1.19-.04 1.99-.13 2.4-.08.4-.2.72-.34.96-.22.35-.54.67-.95.97-.41.3-.92.53-1.54.7-.61.17-1.33.26-2.15.26-.93 0-1.74-.12-2.4-.37-.67-.24-1.17-.56-1.52-.96-.34-.39-.57-.91-.7-1.54-.09-.43-.14-1.05-.14-1.86v-4.19c0-.99-.05-1.55-.14-1.68-.13-.18-.55-.28-1.24-.31-.15 0-.28 0-.38-.03M587.73 173.52v-.67l2.15.13H591.2c.37 0 .94-.02 1.73-.06.44-.03.73-.04.84-.04.76 0 1.33.04 1.72.12.59.12 1.06.3 1.41.56.35.26.64.62.89 1.1.25.48.38.92.38 1.33 0 1.02-.33 1.85-.99 2.48-.66.63-1.49.95-2.5.95-.35 0-.68-.04-1-.12-.32-.08-.61-.2-.89-.37-.03-.17-.05-.41-.05-.7.14.01.28.02.39.03h.31c.51 0 .94-.14 1.29-.41.46-.36.7-.94.7-1.74 0-.57-.1-1.05-.3-1.41-.2-.37-.44-.61-.72-.74-.39-.18-.82-.26-1.3-.26-.45 0-.78.07-.97.19-.05.08-.08.15-.11.22l.06 4.14-.02.35.03.37v3.6c0 .19.02.45.05.78l1.8.22c.03.14.04.25.04.33 0 .09-.01.21-.04.37-.15.02-.27.03-.34.03-.19 0-.54-.02-1.06-.07-.52-.04-1.11-.07-1.77-.07-.75 0-1.46.05-2.13.14-.11.02-.3.03-.54.04-.02-.17-.04-.29-.04-.38 0-.05 0-.13.02-.25l.55-.18c.38-.11.71-.25.99-.4.05-.17.08-.32.08-.47v-.96l-.03-2.47-.1-2.78c-.04-1.32-.08-2.04-.1-2.14a.747.747 0 0 0-.22-.4c-.1-.1-.27-.16-.52-.21-.5-.08-.83-.15-.99-.2" class="cls-3"/><path d="M161.5 160.39v-1.34h1.86c2.09 0 3.58-.66 4.45-1.99.53-.8.8-2.58.8-5.35v-31.65c0-3.06-.34-4.97-1.02-5.75-.95-1.06-2.36-1.59-4.23-1.59h-1.86v-1.34h20.15c7.39 0 13.02.83 16.88 2.49 3.85 1.66 6.96 4.43 9.3 8.31 2.35 3.88 3.52 8.36 3.52 13.44 0 6.82-2.09 12.51-6.28 17.09-4.7 5.11-11.85 7.66-21.46 7.66H161.5m14.12-3.54c3.09.67 5.68 1.01 7.77 1.01 5.64 0 10.33-1.96 14.05-5.89 3.72-3.93 5.58-9.25 5.58-15.97s-1.86-12.1-5.58-16.01-8.5-5.85-14.34-5.85c-2.19 0-4.68.35-7.48 1.05v41.66ZM237.93 146.64h-15.89l-2.79 6.48c-.69 1.59-1.03 2.78-1.03 3.57 0 .63.3 1.18.89 1.65.6.47 1.88.78 3.86.92v1.12h-12.93v-1.12c1.72-.3 2.83-.7 3.33-1.18 1.03-.97 2.17-2.94 3.42-5.9l14.44-33.79h1.06l14.29 34.15c1.15 2.74 2.19 4.52 3.13 5.34.94.82 2.24 1.28 3.92 1.38v1.12h-16.2v-1.12c1.63-.08 2.74-.35 3.31-.82.58-.46.86-1.03.86-1.69 0-.89-.4-2.29-1.21-4.21l-2.48-5.9m-.85-2.24-6.96-16.59-7.14 16.59h14.11ZM291.49 149.04l1 .21-3.51 11.14h-31.79v-1.12h1.54c1.74 0 2.98-.56 3.72-1.69.42-.65.64-2.14.64-4.48v-26.49c0-2.56-.28-4.17-.85-4.81-.79-.89-1.96-1.33-3.51-1.33h-1.54v-1.12h18.59v1.12c-2.18-.02-3.71.18-4.59.61-.88.42-1.48.96-1.8 1.6-.32.65-.49 2.19-.49 4.63v25.79c0 1.67.16 2.83.49 3.45.24.42.61.74 1.12.94.5.2 2.08.3 4.72.3h3c3.15 0 5.36-.23 6.63-.7 1.27-.46 2.43-1.29 3.48-2.47 1.05-1.18 2.1-3.04 3.15-5.59M321.64 119.34l.45 9.63h-1.15c-.22-1.7-.53-2.91-.91-3.63-.62-1.17-1.46-2.03-2.5-2.59s-2.41-.83-4.1-.83h-5.78v31.36c0 2.52.27 4.1.82 4.72.77.85 1.95 1.27 3.54 1.27h1.42v1.12h-17.41v-1.12h1.45c1.74 0 2.97-.52 3.69-1.57.44-.65.67-2.12.67-4.42v-31.36h-4.93c-1.92 0-3.28.14-4.09.42-1.05.38-1.95 1.12-2.7 2.21-.75 1.09-1.19 2.56-1.33 4.42h-1.15l.48-9.63h33.51M348.99 118.4c5.75 0 10.74 2.02 14.96 6.07 4.22 4.05 6.33 9.1 6.33 15.15s-2.12 11.41-6.38 15.53c-4.25 4.12-9.4 6.18-15.43 6.18s-11.23-2.01-15.38-6.02c-4.15-4.02-6.23-9.21-6.23-15.59s2.4-11.84 7.19-15.95c4.16-3.57 9.14-5.36 14.94-5.36m-.62 2.21c-3.97 0-7.15 1.36-9.55 4.09-2.99 3.39-4.48 8.36-4.48 14.9s1.55 11.86 4.64 15.47c2.38 2.75 5.51 4.12 9.42 4.12 4.16 0 7.6-1.5 10.32-4.51 2.71-3.01 4.07-7.75 4.07-14.23 0-7.02-1.49-12.26-4.48-15.71-2.4-2.75-5.71-4.12-9.94-4.12ZM372.4 119.34h11.81l26.6 30.79v-23.67c0-2.52-.3-4.1-.9-4.72-.79-.85-2.04-1.27-3.75-1.27h-1.51v-1.12h15.15v1.12h-1.54c-1.84 0-3.14.53-3.92 1.57-.47.65-.71 2.12-.71 4.42v34.6h-1.15L383.79 128v25.28c0 2.52.29 4.1.87 4.72.81.85 2.06 1.27 3.75 1.27h1.54v1.12H374.8v-1.12h1.51c1.86 0 3.18-.52 3.95-1.57.47-.65.71-2.12.71-4.42v-28.55c-1.26-1.39-2.22-2.31-2.87-2.76-.65-.44-1.61-.86-2.87-1.24-.62-.18-1.56-.27-2.82-.27v-1.12" class="cls-2"/><path d="M488 111.39v1.34c-1.35 0-2.45.23-3.29.69-.84.46-1.65 1.31-2.41 2.57-.51.84-1.31 2.86-2.41 6.03l-14.48 39.49h-1.53l-11.84-31.33-11.76 31.33h-1.38l-15.44-40.69c-1.15-3.04-1.88-4.83-2.18-5.38-.51-.92-1.21-1.6-2.09-2.04-.88-.44-2.08-.67-3.58-.67v-1.34h19.23v1.34h-.92c-1.35 0-2.39.29-3.1.87-.71.58-1.07 1.28-1.07 2.09s.56 2.78 1.68 5.82l10.23 27.5 8.62-23.38-1.53-4.12-1.23-3.29c-.54-1.2-1.14-2.26-1.8-3.18-.33-.46-.74-.84-1.23-1.16-.64-.43-1.28-.75-1.91-.94-.49-.14-1.25-.22-2.3-.22v-1.34h20.22v1.34h-1.38c-1.43 0-2.48.29-3.14.87-.66.58-1 1.36-1 2.35 0 1.23.57 3.37 1.72 6.43l9.96 26.63 9.88-26.99c1.12-2.99 1.69-5.06 1.69-6.21 0-.55-.19-1.07-.56-1.55-.37-.48-.84-.82-1.4-1.01-.97-.34-2.24-.51-3.79-.51v-1.34h15.51M504.9 147.64H489l-2.79 6.48c-.68 1.59-1.03 2.78-1.03 3.57 0 .63.3 1.18.89 1.65.59.47 1.88.78 3.86.92v1.12H477v-1.12c1.71-.3 2.83-.7 3.33-1.18 1.03-.97 2.17-2.94 3.42-5.9l14.44-33.79h1.06l14.29 34.15c1.15 2.74 2.2 4.52 3.13 5.34.94.82 2.24 1.28 3.92 1.38v1.12h-16.2v-1.12c1.64-.08 2.74-.35 3.32-.82.58-.46.86-1.03.86-1.69 0-.89-.4-2.29-1.21-4.21l-2.48-5.9m-.85-2.24-6.96-16.59-7.14 16.59h14.11ZM523.9 161.39v-1.14h1.61c1.82 0 3.11-.56 3.87-1.69.46-.68.7-2.19.7-4.55v-26.95c0-2.61-.3-4.24-.89-4.89-.82-.9-2.05-1.35-3.68-1.35h-1.61v-1.14h17.49c6.42 0 11.31.71 14.65 2.12 3.35 1.42 6.04 3.77 8.08 7.08 2.04 3.3 3.06 7.12 3.06 11.44 0 5.8-1.82 10.65-5.45 14.55-4.08 4.35-10.29 6.52-18.63 6.52h-19.2m12.26-3.01c2.68.57 4.93.86 6.75.86 4.9 0 8.97-1.67 12.2-5.01 3.23-3.34 4.85-7.88 4.85-13.6s-1.62-10.31-4.85-13.63c-3.23-3.32-7.38-4.98-12.45-4.98-1.9 0-4.07.3-6.5.89v35.47ZM581.12 121.95v16.49h8.43c2.19 0 3.65-.36 4.39-1.08.98-.94 1.53-2.6 1.64-4.98h1.05v14.52h-1.05c-.26-2.03-.53-3.33-.79-3.91-.34-.72-.9-1.28-1.67-1.69-.77-.41-1.96-.62-3.57-.62h-8.43v13.75c0 1.85.08 2.97.23 3.37.15.4.41.72.79.95.38.23 1.09.35 2.15.35h6.51c2.17 0 3.74-.16 4.73-.49.98-.33 1.93-.97 2.83-1.94 1.17-1.27 2.37-3.19 3.6-5.75h1.13l-3.31 10.46h-29.57v-1.14h1.36c.91 0 1.76-.24 2.58-.71.6-.33 1.01-.82 1.23-1.48.22-.66.33-2 .33-4.03v-27.1c0-2.65-.25-4.28-.74-4.89-.68-.82-1.81-1.23-3.4-1.23h-1.36v-1.14h29.57l.42 9.14h-1.1c-.4-2.19-.83-3.7-1.32-4.52-.48-.82-1.19-1.44-2.14-1.88-.75-.31-2.08-.46-3.99-.46h-10.53" class="cls-3"/></svg>